<?xml version="1.0" encoding="UTF-8"?>
<svg id="Layer_2" data-name="Layer 2" xmlns="http://www.w3.org/2000/svg" viewBox="0 0 306.38 66.25">
  <defs>
    <style>
      .cls-1 {
        fill: #f9b192;
      }

      .cls-2 {
        fill: #0d8f6a;
      }

      .cls-3 {
        fill: #767676;
      }

      .cls-4 {
        fill: #1c3b6a;
      }

      .cls-5 {
        fill: #f26f75;
      }

      .cls-6 {
        fill: #a7323a;
      }

      .cls-7 {
        isolation: isolate;
      }

      .cls-8 {
        fill: #1c3c6a;
      }

      .cls-9 {
        fill: #75c043;
      }
    </style>
  </defs>
  <g id="Layer_1-2" data-name="Layer 1">
    <g>
      <g id="Layer_1-2" data-name="Layer 1-2">
        <g>
          <polygon class="cls-5" points="16.11 33.21 0 22.54 3.62 17.08 15.25 24.78 36.34 3.55 40.99 8.17 16.11 33.21"/>
          <polygon class="cls-6" points="17.51 42.29 2.52 32.35 4.33 29.62 17.08 38.07 36.6 18.4 38.93 20.71 17.51 42.29"/>
          <polygon class="cls-1" points="14.41 18.25 8.44 14.29 10.24 11.56 13.98 14.03 21.77 6.19 24.1 8.5 14.41 18.25"/>
          <polygon class="cls-1" points="28.45 42.42 37.27 33.53 34.95 31.23 23.83 42.42 28.45 42.42"/>
          <polygon class="cls-3" points="70.72 3.55 70.72 7.66 53.9 7.66 53.9 20.71 67.56 20.71 67.56 24.82 53.9 24.82 53.9 42.26 48.85 42.26 48.85 3.55 70.72 3.55"/>
          <path class="cls-3" d="M75.61,5.89c-.67-.67-1-1.48-1-2.44s.33-1.78,1-2.44c.67-.67,1.48-1,2.44-1s1.71.33,2.36,1c.65.67.97,1.48.97,2.44s-.32,1.78-.97,2.44c-.65.67-1.44,1-2.36,1s-1.78-.33-2.44-1M80.5,42.26h-5.05V11.83h5.05v30.43Z"/>
          <path class="cls-3" d="M96.58,12.72c1.65-.96,3.66-1.44,6.02-1.44v5.22h-1.33c-5.66,0-8.5,3.07-8.5,9.22v16.55h-5.05V11.83h5.05v4.94c.89-1.74,2.16-3.09,3.8-4.05"/>
          <path class="cls-3" d="M111.54,41.57c-1.85-.8-3.31-1.91-4.39-3.33-1.07-1.42-1.67-3.06-1.78-4.91h5.22c.15,1.52.86,2.76,2.14,3.72,1.28.96,2.95,1.44,5.03,1.44,1.92,0,3.44-.42,4.55-1.28,1.11-.85,1.66-1.92,1.66-3.22s-.59-2.32-1.78-2.97c-1.18-.65-3.02-1.29-5.5-1.92-2.26-.59-4.1-1.19-5.53-1.8-1.43-.61-2.65-1.52-3.67-2.72-1.02-1.2-1.53-2.79-1.53-4.75,0-1.56.46-2.98,1.39-4.28.93-1.3,2.24-2.32,3.94-3.08,1.7-.76,3.65-1.14,5.83-1.14,3.37,0,6.09.85,8.16,2.55,2.07,1.7,3.18,4.04,3.33,7h-5.05c-.11-1.59-.75-2.87-1.92-3.83-1.17-.96-2.73-1.44-4.69-1.44-1.81,0-3.26.39-4.33,1.17-1.07.78-1.61,1.8-1.61,3.05,0,1,.32,1.82.97,2.47s1.46,1.17,2.44,1.55c.98.39,2.34.83,4.08,1.3,2.18.59,3.96,1.18,5.33,1.75,1.37.57,2.55,1.44,3.53,2.58.98,1.15,1.49,2.65,1.53,4.5,0,1.67-.46,3.17-1.39,4.5-.93,1.33-2.23,2.38-3.91,3.14-1.69.76-3.62,1.14-5.8,1.14-2.33,0-4.42-.4-6.28-1.19"/>
          <path class="cls-3" d="M140.81,15.99v17.94c0,1.48.31,2.53.94,3.14.63.61,1.72.92,3.28.92h3.72v4.28h-4.55c-2.81,0-4.92-.65-6.33-1.94s-2.11-3.42-2.11-6.39V15.99h-3.94v-4.17h3.94v-7.66h5.05v7.67h7.94v4.17h-7.94,0Z"/>
          <polygon class="cls-8" points="159.69 8.77 159.69 20.1 173.01 20.1 173.01 25.27 159.69 25.27 159.69 37.1 174.68 37.1 174.68 42.26 153.36 42.26 153.36 3.61 174.68 3.61 174.68 8.77 159.69 8.77"/>
          <path class="cls-8" d="M202.97,12.66c1.91,1,3.4,2.48,4.47,4.44,1.07,1.96,1.61,4.33,1.61,7.11v18.05h-6.28v-17.1c0-2.74-.69-4.84-2.05-6.3-1.37-1.46-3.24-2.19-5.61-2.19s-4.25.73-5.64,2.19c-1.39,1.46-2.08,3.56-2.08,6.3v17.1h-6.33V11.66h6.33v3.5c1.04-1.26,2.36-2.24,3.97-2.94,1.61-.7,3.32-1.06,5.14-1.06,2.41,0,4.56.5,6.47,1.5"/>
          <path class="cls-8" d="M225.74,12.47c1.53-.87,3.36-1.3,5.47-1.3v6.55h-1.61c-2.48,0-4.36.63-5.64,1.89s-1.92,3.44-1.92,6.55v16.1h-6.33V11.66h6.33v4.44c.92-1.55,2.16-2.77,3.69-3.64"/>
          <path class="cls-8" d="M241.1,40.79c-2.33-1.31-4.17-3.17-5.5-5.55-1.33-2.39-2-5.15-2-8.3s.68-5.87,2.05-8.27c1.37-2.41,3.24-4.26,5.61-5.55,2.37-1.3,5.02-1.94,7.94-1.94s5.57.65,7.94,1.94c2.37,1.3,4.24,3.15,5.61,5.55,1.37,2.41,2.05,5.16,2.05,8.27s-.7,5.87-2.11,8.27c-1.41,2.41-3.32,4.27-5.75,5.58-2.43,1.31-5.1,1.97-8.02,1.97s-5.5-.66-7.83-1.97M253.51,36.1c1.42-.78,2.58-1.94,3.47-3.5.89-1.56,1.33-3.44,1.33-5.66s-.43-4.1-1.28-5.64c-.85-1.54-1.98-2.69-3.39-3.47-1.41-.78-2.92-1.17-4.55-1.17s-3.14.39-4.53,1.17-2.49,1.93-3.3,3.47c-.82,1.54-1.22,3.42-1.22,5.64,0,3.3.84,5.84,2.53,7.64,1.68,1.8,3.8,2.69,6.36,2.69,1.63,0,3.15-.39,4.58-1.17"/>
          <rect class="cls-8" x="269.7" y="3.55" width="6.33" height="38.71"/>
          <rect class="cls-8" x="282.97" y="3.55" width="6.33" height="38.71"/>
        </g>
      </g>
      <g>
        <g>
          <path class="cls-4" d="M0,60.74c0-.58.48-1.06,1.06-1.06s1.06.48,1.06,1.06-.48,1.06-1.06,1.06-1.06-.48-1.06-1.06Z"/>
          <path class="cls-4" d="M4.48,60.74c0-.58.48-1.06,1.06-1.06s1.06.48,1.06,1.06-.48,1.06-1.06,1.06-1.06-.48-1.06-1.06Z"/>
          <path class="cls-4" d="M8.96,60.74c0-.58.48-1.06,1.06-1.06s1.06.48,1.06,1.06-.48,1.06-1.06,1.06-1.06-.48-1.06-1.06Z"/>
          <path class="cls-4" d="M17.39,50.27c.58,0,1.06.48,1.06,1.06s-.48,1.06-1.06,1.06-1.06-.48-1.06-1.06.48-1.06,1.06-1.06ZM16.66,54.07h1.45v7.64h-1.45v-7.64Z"/>
          <path class="cls-4" d="M24.48,55.99c-.34-.42-.84-.76-1.56-.76-.68,0-1.27.31-1.27.85,0,.92,1.31,1.05,1.95,1.19,1.26.31,2.22.79,2.22,2.22,0,1.72-1.58,2.4-3.09,2.4-1.26,0-2.19-.32-2.95-1.35l1.1-.9c.47.47,1.02.9,1.85.9.74,0,1.55-.31,1.55-.97,0-.87-1.21-1.03-1.84-1.18-1.24-.31-2.34-.71-2.34-2.18,0-1.6,1.47-2.35,2.9-2.35,1.02,0,2.06.35,2.61,1.26l-1.13.85Z"/>
          <path class="cls-4" d="M32.05,54.07h1.45v1.18h.03c.37-.81,1.34-1.37,2.51-1.37,1.48,0,2.77.89,2.77,2.92v4.92h-1.45v-4.51c0-1.43-.82-1.97-1.74-1.97-1.21,0-2.13.77-2.13,2.55v3.93h-1.45v-7.64Z"/>
          <path class="cls-4" d="M44.71,53.88c2.27,0,4.06,1.79,4.06,4.01s-1.79,4.01-4.06,4.01-4.06-1.79-4.06-4.01,1.79-4.01,4.06-4.01ZM44.71,60.55c1.55,0,2.51-1.11,2.51-2.66s-.97-2.66-2.51-2.66-2.51,1.11-2.51,2.66.97,2.66,2.51,2.66Z"/>
          <path class="cls-4" d="M49.67,54.07h1.63l1.72,5.71h.03l1.82-5.71h1.53l1.93,5.71h.03l1.64-5.71h1.53l-2.47,7.64h-1.47l-2.01-5.71h-.03l-1.82,5.71h-1.56l-2.51-7.64Z"/>
          <path class="cls-4" d="M67.3,54.07h1.45v1.1h.03c.56-.82,1.63-1.29,2.66-1.29,2.37,0,3.88,1.76,3.88,4.01s-1.53,4.01-3.88,4.01c-1.1,0-2.14-.5-2.66-1.29h-.03v5.64h-1.45v-12.19ZM68.76,57.89c0,1.55.97,2.66,2.51,2.66s2.51-1.11,2.51-2.66-.97-2.66-2.51-2.66-2.51,1.11-2.51,2.66Z"/>
          <path class="cls-4" d="M77.18,55c.81-.76,1.97-1.13,3.03-1.13,2.26,0,3.19,1.22,3.19,2.55v3.9c0,.53.02.98.06,1.39h-1.29c-.03-.39-.05-.77-.05-1.16h-.03c-.64.98-1.52,1.35-2.68,1.35-1.42,0-2.64-.81-2.64-2.29,0-1.97,1.89-2.64,4.21-2.64h1.06v-.32c0-.79-.58-1.61-1.82-1.61-1.11,0-1.64.47-2.18.87l-.87-.9ZM81.28,58.03c-1.37,0-3.05.24-3.05,1.47,0,.87.64,1.24,1.64,1.24,1.61,0,2.18-1.19,2.18-2.22v-.48h-.77Z"/>
          <path class="cls-4" d="M85.52,54.07h1.45v1.18h.03c.37-.81,1.34-1.37,2.29-1.37.23,0,.45.03.64.1l-.06,1.56c-.24-.06-.48-.11-.71-.11-1.42,0-2.19.77-2.19,2.45v3.84h-1.45v-7.64Z"/>
          <path class="cls-4" d="M95.58,55.33h-2.08v3.47c0,.85,0,1.76,1.1,1.76.34,0,.74-.05,1.03-.23v1.32c-.34.19-1.02.26-1.31.26-2.24,0-2.27-1.37-2.27-2.59v-3.98h-1.68v-1.26h1.68v-2.14h1.45v2.14h2.08v1.26Z"/>
          <path class="cls-4" d="M105.62,53.88c2.27,0,4.06,1.79,4.06,4.01s-1.79,4.01-4.06,4.01-4.06-1.79-4.06-4.01,1.79-4.01,4.06-4.01ZM105.62,60.55c1.55,0,2.51-1.11,2.51-2.66s-.97-2.66-2.51-2.66-2.51,1.11-2.51,2.66.97,2.66,2.51,2.66Z"/>
          <path class="cls-4" d="M112.06,55.33h-1.64v-1.26h1.64v-1.71c0-2.03.71-3.03,2.61-3.03.32,0,.68.02,1.08.11l-.16,1.29c-.27-.11-.53-.15-.82-.15-1.06,0-1.24.66-1.24,1.72v1.76h1.72v1.26h-1.74v6.38h-1.45v-6.38Z"/>
          <path class="cls-4" d="M125.44,55.33h-2.08v3.47c0,.85,0,1.76,1.1,1.76.34,0,.74-.05,1.03-.23v1.32c-.34.19-1.02.26-1.31.26-2.24,0-2.27-1.37-2.27-2.59v-3.98h-1.68v-1.26h1.68v-2.14h1.45v2.14h2.08v1.26Z"/>
          <path class="cls-4" d="M127.33,49.52h1.45v5.72h.03c.37-.81,1.34-1.37,2.51-1.37,1.48,0,2.77.89,2.77,2.92v4.92h-1.45v-4.51c0-1.43-.82-1.97-1.74-1.97-1.21,0-2.13.77-2.13,2.55v3.93h-1.45v-12.19Z"/>
          <path class="cls-4" d="M137.39,58.42c0,1.34,1.24,2.22,2.58,2.22.89,0,1.53-.45,2.1-1.14l1.1.84c-.81,1.05-1.92,1.56-3.38,1.56-2.42,0-3.93-1.74-3.93-4.01s1.66-4.01,3.95-4.01c2.69,0,3.72,2.06,3.72,4.03v.52h-6.12ZM141.96,57.26c-.03-1.27-.74-2.22-2.21-2.22s-2.37,1.21-2.37,2.22h4.58Z"/>
          <path class="cls-4" d="M244.39,55.33h-1.64v-1.26h1.64v-1.71c0-2.03.71-3.03,2.61-3.03.32,0,.68.02,1.08.11l-.16,1.29c-.27-.11-.53-.15-.82-.15-1.06,0-1.24.66-1.24,1.72v1.76h1.72v1.26h-1.74v6.38h-1.45v-6.38Z"/>
          <path class="cls-4" d="M249.23,55c.81-.76,1.97-1.13,3.03-1.13,2.26,0,3.19,1.22,3.19,2.55v3.9c0,.53.02.98.06,1.39h-1.29c-.03-.39-.05-.77-.05-1.16h-.03c-.64.98-1.52,1.35-2.68,1.35-1.42,0-2.64-.81-2.64-2.29,0-1.97,1.89-2.64,4.21-2.64h1.06v-.32c0-.79-.58-1.61-1.82-1.61-1.11,0-1.64.47-2.18.87l-.87-.9ZM253.32,58.03c-1.37,0-3.05.24-3.05,1.47,0,.87.64,1.24,1.64,1.24,1.61,0,2.18-1.19,2.18-2.22v-.48h-.77Z"/>
          <path class="cls-4" d="M257.56,54.07h1.35v1.19h.03c.15-.45,1.08-1.39,2.45-1.39,1.13,0,1.9.48,2.39,1.42.5-.93,1.5-1.42,2.42-1.42,2.35,0,2.9,1.68,2.9,3.38v4.45h-1.45v-4.26c0-1.16-.24-2.22-1.64-2.22s-1.95.95-1.95,2.3v4.17h-1.45v-4c0-1.45-.21-2.48-1.61-2.48-1.05,0-1.98.79-1.98,2.51v3.97h-1.45v-7.64Z"/>
          <path class="cls-4" d="M272.13,50.27c.58,0,1.06.48,1.06,1.06s-.48,1.06-1.06,1.06-1.06-.48-1.06-1.06.48-1.06,1.06-1.06ZM271.41,54.07h1.45v7.64h-1.45v-7.64Z"/>
          <path class="cls-4" d="M275.28,49.52h1.45v12.19h-1.45v-12.19Z"/>
          <path class="cls-4" d="M278.11,54.07h1.68l2.27,5.96h.03l2.16-5.96h1.56l-3.63,9.28c-.52,1.32-1.02,2.22-2.61,2.22-.44,0-.89-.05-1.29-.21l.18-1.32c.27.11.58.18.87.18.92,0,1.19-.5,1.48-1.26l.47-1.21-3.18-7.69Z"/>
          <path class="cls-4" d="M288.23,59.68c.58,0,1.06.48,1.06,1.06s-.48,1.06-1.06,1.06-1.06-.48-1.06-1.06.48-1.06,1.06-1.06ZM288.98,58.42h-1.55v-8.12h1.55v8.12Z"/>
        </g>
        <g id="Layer_1-2-2" data-name="Layer 1-2">
          <polygon class="cls-9" points="154.61 58.81 149.28 55.28 150.48 53.48 154.33 56.03 161.31 49 162.84 50.53 154.61 58.81"/>
          <polygon class="cls-2" points="155.07 61.82 150.11 58.53 150.71 57.63 154.93 60.42 161.39 53.91 162.16 54.68 155.07 61.82"/>
          <polygon class="cls-2" points="154.05 53.86 152.07 52.55 152.67 51.65 153.91 52.47 156.48 49.87 157.25 50.64 154.05 53.86"/>
          <polygon class="cls-9" points="158.69 61.86 161.61 58.92 160.84 58.16 157.16 61.86 158.69 61.86"/>
          <polygon class="cls-4" points="175.76 49 175.76 61.86 173.63 61.86 173.63 56.18 167.52 56.18 167.52 61.86 165.38 61.86 165.38 49 167.52 49 167.52 54.44 173.63 54.44 173.63 49 175.76 49"/>
          <g>
            <path class="cls-4" d="M187.47,57.51h-7.87c.06.82.37,1.48.92,1.98.55.5,1.22.75,2.02.75,1.15,0,1.96-.48,2.43-1.44h2.3c-.31.95-.88,1.72-1.69,2.33-.82.61-1.83.91-3.04.91-.98,0-1.87-.22-2.65-.66-.78-.44-1.39-1.07-1.83-1.87-.44-.8-.66-1.74-.66-2.79s.22-1.99.64-2.79,1.03-1.42,1.81-1.86c.78-.44,1.67-.65,2.68-.65s1.84.21,2.6.64,1.35,1.02,1.78,1.79c.42.77.64,1.65.64,2.65,0,.39-.02.74-.07,1.05M185.32,55.79c-.01-.78-.29-1.41-.84-1.89-.55-.47-1.23-.71-2.04-.71-.74,0-1.37.23-1.89.7s-.84,1.1-.93,1.9h5.7,0Z"/>
            <path class="cls-4" d="M189.1,53.92c.43-.8,1.02-1.42,1.76-1.86.74-.44,1.56-.66,2.46-.66.81,0,1.52.16,2.12.48.6.32,1.09.71,1.45,1.19v-1.5h2.15v10.3h-2.15v-1.53c-.36.49-.85.89-1.48,1.22-.62.32-1.33.49-2.13.49-.88,0-1.69-.23-2.43-.68s-1.32-1.09-1.75-1.91c-.43-.82-.64-1.74-.64-2.78s.22-1.95.64-2.75M196.45,54.85c-.29-.52-.68-.92-1.15-1.2-.47-.27-.98-.41-1.53-.41s-1.06.13-1.53.4c-.47.27-.86.66-1.15,1.18-.29.52-.44,1.13-.44,1.84s.15,1.33.44,1.87c.29.54.68.94,1.16,1.22.48.28.99.42,1.52.42s1.06-.14,1.53-.41c.47-.27.86-.68,1.15-1.21.29-.53.44-1.15.44-1.86s-.15-1.33-.44-1.85"/>
            <path class="cls-4" d="M203.86,53.3v5.7c0,.39.09.66.27.83.18.17.49.25.93.25h1.31v1.78h-1.68c-.96,0-1.69-.22-2.21-.67s-.77-1.18-.77-2.19v-5.7h-1.22v-1.74h1.22v-2.56h2.15v2.56h2.51v1.74h-2.51,0Z"/>
            <path class="cls-4" d="M215.3,51.9c.62.34,1.1.84,1.46,1.5.36.66.53,1.46.53,2.39v6.08h-2.11v-5.76c0-.92-.23-1.63-.69-2.12s-1.09-.74-1.89-.74-1.43.25-1.9.74c-.47.49-.7,1.2-.7,2.12v5.76h-2.13v-12.86h2.13v3.76c.36-.44.82-.77,1.37-1.01.56-.24,1.16-.36,1.82-.36.78,0,1.49.17,2.1.51"/>
            <path class="cls-4" d="M221.1,61.37c-.78-.44-1.4-1.07-1.85-1.87-.45-.8-.67-1.74-.67-2.79s.23-1.98.69-2.79c.46-.81,1.09-1.43,1.89-1.87s1.69-.65,2.67-.65,1.88.22,2.67.65,1.43,1.06,1.89,1.87c.46.81.69,1.74.69,2.79s-.24,1.98-.71,2.79c-.47.81-1.12,1.44-1.93,1.88-.82.44-1.72.66-2.7.66s-1.85-.22-2.64-.66M225.27,59.79c.48-.26.87-.65,1.17-1.18.3-.52.45-1.16.45-1.91s-.14-1.38-.43-1.9c-.29-.52-.67-.91-1.14-1.17s-.98-.39-1.53-.39-1.06.13-1.52.39-.84.65-1.11,1.17-.41,1.15-.41,1.9c0,1.11.28,1.97.85,2.57.57.61,1.28.91,2.14.91.55,0,1.06-.13,1.54-.39"/>
            <path class="cls-4" d="M231.99,61.59c-.64-.29-1.15-.69-1.52-1.2-.37-.51-.57-1.07-.6-1.69h2.21c.04.44.25.8.63,1.09.38.29.86.44,1.43.44s1.06-.12,1.39-.35c.33-.23.49-.53.49-.89,0-.39-.18-.67-.55-.86-.37-.19-.95-.39-1.75-.62-.77-.21-1.4-.42-1.89-.62-.49-.2-.91-.51-1.26-.92-.36-.41-.53-.95-.53-1.63,0-.55.16-1.05.49-1.51.32-.46.79-.81,1.39-1.08.6-.26,1.3-.39,2.08-.39,1.17,0,2.12.3,2.83.89s1.1,1.4,1.15,2.42h-2.13c-.04-.46-.22-.83-.56-1.1-.34-.27-.79-.41-1.37-.41s-.99.11-1.29.32c-.3.21-.45.49-.45.84,0,.27.1.51.3.69.2.19.44.33.73.44s.71.24,1.27.4c.75.2,1.36.4,1.84.61s.89.51,1.24.91c.35.4.53.93.54,1.59,0,.59-.16,1.11-.49,1.57-.32.46-.78.82-1.37,1.08s-1.29.39-2.08.39-1.54-.15-2.18-.44"/>
          </g>
        </g>
      </g>
      <g class="cls-7">
        <path class="cls-8" d="M299.95,4.22h-1.62v4.36h-.73v-4.36h-1.65v-.66h4.01v.66h0ZM306.38,8.57h-.73v-4.22h-.03l-1.69,4.22h-.48l-1.69-4.22h-.03v4.22h-.73V3.55h1.13l1.57,3.85,1.57-3.85h1.09v5.02h.01Z"/>
      </g>
    </g>
  </g>
</svg>