<?xml version="1.0" encoding="UTF-8"?>
<svg id="Layer_2" data-name="Layer 2" xmlns="http://www.w3.org/2000/svg" viewBox="0 0 1931.54 267.44">
  <defs>
    <style>
      .cls-1 {
        fill: #a53038;
      }

      .cls-2 {
        fill: #243e81;
      }

      .cls-3 {
        isolation: isolate;
      }

      .cls-4 {
        fill: #f8af91;
      }

      .cls-5 {
        fill: #1c3a6a;
      }

      .cls-6 {
        fill: #747575;
      }

      .cls-7 {
        fill: #f16d75;
      }
    </style>
  </defs>
  <g id="Layer_1-2" data-name="Layer 1">
    <g>
      <g class="cls-3">
        <g class="cls-3">
          <path class="cls-2" d="M1875.49,9.9h-14.15v38.08h-6.4V9.9h-14.43v-5.78h34.99v5.78ZM1931.54,47.92h-6.4V11.14h-.22l-14.77,36.79h-4.16l-14.77-36.79h-.22v36.79h-6.4V4.12h9.88l13.7,33.58,13.7-33.58h9.55v43.81h.11Z"/>
        </g>
      </g>
      <polygon class="cls-7" points="100.76 207.71 0 140.96 22.63 106.8 95.37 155 227.29 22.21 256.36 51.08 100.76 207.71"/>
      <polygon class="cls-1" points="109.53 264.47 15.76 202.35 27.07 185.27 106.83 238.1 228.91 115.09 243.46 129.53 109.53 264.47"/>
      <polygon class="cls-4" points="90.15 114.12 52.76 89.36 64.07 72.28 87.45 87.77 136.16 38.73 150.7 53.17 90.15 114.12"/>
      <polygon class="cls-4" points="177.91 265.34 233.11 209.74 218.57 195.31 149.03 265.34 177.91 265.34"/>
      <polygon class="cls-6" points="442.34 22.23 442.34 47.93 337.1 47.93 337.1 129.55 422.54 129.55 422.54 155.25 337.1 155.25 337.1 264.31 305.5 264.31 305.5 22.23 442.34 22.23"/>
      <path class="cls-6" d="M472.9,36.81c-4.16-4.17-6.25-9.26-6.25-15.28s2.09-11.11,6.25-15.28c4.17-4.17,9.26-6.25,15.28-6.25s10.71,2.08,14.76,6.25c4.05,4.17,6.08,9.26,6.08,15.28s-2.03,11.12-6.08,15.28c-4.05,4.17-8.98,6.25-14.76,6.25s-11.12-2.08-15.28-6.25M503.46,264.31h-31.6V73.98h31.6v190.33Z"/>
      <path class="cls-6" d="M604.02,79.53c10.3-6.02,22.86-9.03,37.68-9.03v32.65h-8.34c-35.42,0-53.14,19.22-53.14,57.65v103.5h-31.6V73.98h31.6v30.91c5.56-10.88,13.49-19.33,23.79-25.36"/>
      <path class="cls-6" d="M697.62,259.97c-11.58-4.98-20.73-11.92-27.44-20.84-6.72-8.91-10.42-19.15-11.11-30.73h32.65c.92,9.5,5.39,17.25,13.37,23.27,7.99,6.02,18.46,9.03,31.43,9.03,12.03,0,21.54-2.65,28.48-7.99,6.94-5.32,10.41-12.03,10.41-20.14s-3.71-14.53-11.11-18.58c-7.41-4.05-18.88-8.05-34.38-11.98-14.13-3.7-25.65-7.47-34.56-11.28-8.92-3.82-16.56-9.49-22.93-17.02-6.37-7.52-9.55-17.42-9.55-29.69,0-9.73,2.9-18.64,8.69-26.74,5.79-8.11,14.01-14.53,24.66-19.28,10.64-4.74,22.8-7.12,36.46-7.12,21.07,0,38.09,5.33,51.06,15.97,12.96,10.65,19.91,25.24,20.84,43.76h-31.61c-.69-9.95-4.69-17.94-11.98-23.97-7.3-6.02-17.08-9.03-29.35-9.03-11.34,0-20.38,2.43-27.09,7.3-6.72,4.86-10.07,11.23-10.07,19.1,0,6.25,2.03,11.41,6.08,15.46,4.05,4.05,9.14,7.29,15.28,9.72,6.13,2.43,14.64,5.16,25.53,8.16,13.66,3.71,24.77,7.35,33.34,10.94,8.56,3.59,15.92,8.98,22.05,16.15,6.13,7.18,9.32,16.56,9.55,28.13,0,10.42-2.9,19.8-8.69,28.13-5.79,8.34-13.95,14.88-24.48,19.63-10.54,4.74-22.64,7.12-36.29,7.12-14.59,0-27.67-2.49-39.25-7.47"/>
      <path class="cls-6" d="M880.66,100.03v112.18c0,9.26,1.97,15.81,5.9,19.63,3.94,3.82,10.77,5.73,20.49,5.73h23.27v26.74h-28.48c-17.6,0-30.8-4.05-39.6-12.15-8.8-8.1-13.2-21.42-13.2-39.95v-112.18h-24.66v-26.05h24.66V26.05h31.61v47.94h49.66v26.05h-49.66Z"/>
      <polygon class="cls-5" points="998.74 54.88 998.74 125.73 1082.1 125.73 1082.1 158.03 998.74 158.03 998.74 232.01 1092.52 232.01 1092.52 264.31 959.15 264.31 959.15 22.58 1092.52 22.58 1092.52 54.88 998.74 54.88"/>
      <path class="cls-5" d="M1269.48,79.19c11.92,6.25,21.24,15.52,27.96,27.79,6.71,12.28,10.07,27.09,10.07,44.46v112.88h-39.25v-106.97c0-17.14-4.29-30.27-12.85-39.42-8.58-9.14-20.27-13.72-35.09-13.72s-26.57,4.58-35.25,13.72c-8.68,9.15-13.02,22.29-13.02,39.42v106.97h-39.6V72.93h39.6v21.88c6.48-7.87,14.76-14,24.83-18.41,10.07-4.4,20.78-6.6,32.13-6.6,15.05,0,28.54,3.13,40.46,9.38"/>
      <path class="cls-5" d="M1411.88,77.97c9.6-5.44,21.01-8.16,34.21-8.16v40.99h-10.07c-15.52,0-27.26,3.94-35.25,11.81-7.99,7.87-11.98,21.54-11.98,40.98v100.72h-39.6V72.94h39.6v27.79c5.78-9.72,13.49-17.31,23.1-22.75"/>
      <path class="cls-5" d="M1507.91,255.11c-14.59-8.22-26.05-19.8-34.38-34.74-8.34-14.93-12.5-32.24-12.5-51.93s4.28-36.69,12.85-51.75c8.57-15.05,20.26-26.62,35.08-34.73,14.82-8.1,31.37-12.16,49.66-12.16s34.85,4.06,49.67,12.16c14.81,8.11,26.51,19.68,35.08,34.73,8.56,15.06,12.85,32.3,12.85,51.75s-4.4,36.7-13.2,51.75c-8.8,15.06-20.78,26.69-35.95,34.91-15.17,8.22-31.9,12.33-50.18,12.33s-34.38-4.11-48.97-12.33M1585.54,225.76c8.91-4.86,16.15-12.16,21.71-21.88,5.56-9.73,8.34-21.54,8.34-35.43s-2.67-25.64-7.99-35.25c-5.33-9.61-12.39-16.85-21.19-21.71-8.8-4.86-18.29-7.3-28.48-7.3s-19.63,2.44-28.31,7.3c-8.68,4.86-15.57,12.1-20.66,21.71-5.1,9.61-7.64,21.36-7.64,35.25,0,20.61,5.26,36.53,15.8,47.76,10.53,11.23,23.79,16.84,39.77,16.84,10.18,0,19.73-2.43,28.65-7.29"/>
      <rect class="cls-5" x="1686.78" y="22.23" width="39.59" height="242.08"/>
      <rect class="cls-5" x="1769.79" y="22.23" width="39.59" height="242.08"/>
    </g>
  </g>
</svg>